<svg xmlns="http://www.w3.org/2000/svg" version="1.1" xmlns:xlink="http://www.w3.org/1999/xlink" width="1024" height="1024"><svg xmlns="http://www.w3.org/2000/svg" version="1.1" xmlns:xlink="http://www.w3.org/1999/xlink" width="1024" height="1024"><svg width="1024" height="1024" viewBox="0 0 1024 1024" fill="none" xmlns="http://www.w3.org/2000/svg">
<rect width="1024" height="1024" fill="black"></rect>
<path d="M401.054 448.002L604.573 95.5754C541.641 81.5083 476.336 81.9183 413.586 96.7744C350.835 111.631 292.278 140.545 242.334 181.335L398.494 452.269L401.054 448.002ZM919.027 384.002C879.774 259.415 784.627 159.575 663.027 113.495L506.867 384.002H919.027ZM930.12 426.669H610.547L622.92 448.002L826.014 800.002C898.615 721.692 938.861 618.789 938.654 512.002C938.654 482.562 935.667 454.402 930.12 426.669ZM364.36 512.002L197.96 224.002C152.249 273.518 118.969 333.196 100.868 398.109C82.7661 463.022 80.3619 531.31 93.8535 597.335H413.427L364.36 512.002ZM104.947 640.002C144.2 764.589 239.347 864.429 360.947 910.509L517.107 640.002H104.947ZM585.8 640.002L419.4 928.429C482.332 942.496 547.637 942.086 610.388 927.23C673.139 912.374 731.696 883.459 781.64 842.669L625.48 571.735L585.8 640.002Z" fill="white"></path>
</svg></svg><style>@media (prefers-color-scheme: light) { :root { filter: none; } }
@media (prefers-color-scheme: dark) { :root { filter: none; } }
</style></svg>